<?xml version="1.0" encoding="UTF-8" standalone="no"?>
<!DOCTYPE svg PUBLIC "-//W3C//DTD SVG 1.1//EN"
 "http://www.w3.org/Graphics/SVG/1.1/DTD/svg11.dtd">
<!-- Generated by graphviz version 2.43.0 (0)
 -->
<!-- Title: opp Pages: 1 -->
<svg width="370pt" height="82pt"
 viewBox="0.00 0.00 370.00 82.00" xmlns="http://www.w3.org/2000/svg" xmlns:xlink="http://www.w3.org/1999/xlink">
<g id="graph0" class="graph" transform="scale(1 1) rotate(0) translate(4 78)">
<title>opp</title>
<polygon fill="transparent" stroke="transparent" points="-4,4 -4,-78 366,-78 366,4 -4,4"/>
<!-- Raft -->
<g id="node1" class="node">
<title>Raft</title>
<g id="a_node1"><a xlink:href="raft.Raft.html" xlink:title="Network Raft" target="_parent">
<polygon fill="#9090ff" stroke="black" points="208,-74 154,-74 154,-55 208,-55 208,-74"/>
<text text-anchor="middle" x="181" y="-62" font-family="Helvetica,sans-Serif" font-size="10.00">Raft</text>
</a>
</g>
</g>
<!-- Server -->
<g id="node2" class="node">
<title>Server</title>
<g id="a_node2"><a xlink:href="raft.Server.html" xlink:title="Simple Module Server" target="_parent">
<polygon fill="#fffcaf" stroke="black" points="54,-19 0,-19 0,0 54,0 54,-19"/>
<text text-anchor="middle" x="27" y="-7" font-family="Helvetica,sans-Serif" font-size="10.00">Server</text>
</a>
</g>
</g>
<!-- Raft&#45;&gt;Server -->
<g id="edge1" class="edge">
<title>Raft&#45;&gt;Server</title>
<path fill="none" stroke="black" d="M156.26,-54.98C130.63,-46.16 90.37,-32.31 61.59,-22.41"/>
<polygon fill="black" stroke="black" points="62.53,-19.03 51.94,-19.08 60.25,-25.65 62.53,-19.03"/>
</g>
<!-- Admin -->
<g id="node3" class="node">
<title>Admin</title>
<g id="a_node3"><a xlink:href="raft.Admin.html" xlink:title="Simple Module Admin" target="_parent">
<polygon fill="#fffcaf" stroke="black" points="126,-19 72,-19 72,0 126,0 126,-19"/>
<text text-anchor="middle" x="99" y="-7" font-family="Helvetica,sans-Serif" font-size="10.00">Admin</text>
</a>
</g>
</g>
<!-- Raft&#45;&gt;Admin -->
<g id="edge2" class="edge">
<title>Raft&#45;&gt;Admin</title>
<path fill="none" stroke="black" d="M167.83,-54.98C155.23,-46.84 136,-34.41 121.06,-24.76"/>
<polygon fill="black" stroke="black" points="122.71,-21.66 112.41,-19.17 118.91,-27.54 122.71,-21.66"/>
</g>
<!-- IdealChannel -->
<g id="node4" class="node">
<title>IdealChannel</title>
<g id="a_node4"><a xlink:href="ned.IdealChannel.html" xlink:title="Channel IdealChannel" target="_parent">
<polygon fill="#d0ffd0" stroke="black" points="218,-19 144,-19 144,0 218,0 218,-19"/>
<text text-anchor="middle" x="181" y="-7" font-family="Helvetica,sans-Serif" font-size="10.00">IdealChannel</text>
</a>
</g>
</g>
<!-- Raft&#45;&gt;IdealChannel -->
<g id="edge3" class="edge">
<title>Raft&#45;&gt;IdealChannel</title>
<path fill="none" stroke="black" d="M181,-54.75C181,-47.8 181,-37.85 181,-29.13"/>
<polygon fill="black" stroke="black" points="184.5,-29.09 181,-19.09 177.5,-29.09 184.5,-29.09"/>
</g>
<!-- Switch -->
<g id="node5" class="node">
<title>Switch</title>
<g id="a_node5"><a xlink:href="raft.Switch.html" xlink:title="Simple Module Switch" target="_parent">
<polygon fill="#fffcaf" stroke="black" points="290,-19 236,-19 236,0 290,0 290,-19"/>
<text text-anchor="middle" x="263" y="-7" font-family="Helvetica,sans-Serif" font-size="10.00">Switch</text>
</a>
</g>
</g>
<!-- Raft&#45;&gt;Switch -->
<g id="edge4" class="edge">
<title>Raft&#45;&gt;Switch</title>
<path fill="none" stroke="black" d="M194.17,-54.98C206.77,-46.84 226,-34.41 240.94,-24.76"/>
<polygon fill="black" stroke="black" points="243.09,-27.54 249.59,-19.17 239.29,-21.66 243.09,-27.54"/>
</g>
<!-- Client -->
<g id="node6" class="node">
<title>Client</title>
<g id="a_node6"><a xlink:href="raft.Client.html" xlink:title="Simple Module Client" target="_parent">
<polygon fill="#fffcaf" stroke="black" points="362,-19 308,-19 308,0 362,0 362,-19"/>
<text text-anchor="middle" x="335" y="-7" font-family="Helvetica,sans-Serif" font-size="10.00">Client</text>
</a>
</g>
</g>
<!-- Raft&#45;&gt;Client -->
<g id="edge5" class="edge">
<title>Raft&#45;&gt;Client</title>
<path fill="none" stroke="black" d="M205.74,-54.98C231.37,-46.16 271.63,-32.31 300.41,-22.41"/>
<polygon fill="black" stroke="black" points="301.75,-25.65 310.06,-19.08 299.47,-19.03 301.75,-25.65"/>
</g>
</g>
</svg>
