<?xml version="1.0" encoding="UTF-8" standalone="no"?>
<!DOCTYPE svg PUBLIC "-//W3C//DTD SVG 1.1//EN"
 "http://www.w3.org/Graphics/SVG/1.1/DTD/svg11.dtd">
<!-- Generated by graphviz version 2.43.0 (0)
 -->
<!-- Title: opp Pages: 1 -->
<svg width="1384pt" height="82pt"
 viewBox="0.00 0.00 1383.50 82.00" xmlns="http://www.w3.org/2000/svg" xmlns:xlink="http://www.w3.org/1999/xlink">
<g id="graph0" class="graph" transform="scale(1 1) rotate(0) translate(4 78)">
<title>opp</title>
<polygon fill="transparent" stroke="transparent" points="-4,4 -4,-78 1379.5,-78 1379.5,4 -4,4"/>
<!-- RPCPacket -->
<g id="node1" class="node">
<title>RPCPacket</title>
<g id="a_node1"><a xlink:href="RPCPacket.html" xlink:title="Packet RPCPacket" target="_parent">
<polygon fill="#fff700" stroke="black" points="720,-74 651,-74 651,-55 720,-55 720,-74"/>
<text text-anchor="middle" x="685.5" y="-62" font-family="Helvetica,sans-Serif" font-size="10.00">RPCPacket</text>
</a>
</g>
</g>
<!-- RPCAppendEntriesPacket -->
<g id="node2" class="node">
<title>RPCAppendEntriesPacket</title>
<g id="a_node2"><a xlink:href="RPCAppendEntriesPacket.html" xlink:title="Packet RPCAppendEntriesPacket" target="_parent">
<polygon fill="#fffcaf" stroke="black" points="133,-19 0,-19 0,0 133,0 133,-19"/>
<text text-anchor="middle" x="66.5" y="-7" font-family="Helvetica,sans-Serif" font-size="10.00">RPCAppendEntriesPacket</text>
</a>
</g>
</g>
<!-- RPCPacket&#45;&gt;RPCAppendEntriesPacket -->
<g id="edge1" class="edge">
<title>RPCPacket&#45;&gt;RPCAppendEntriesPacket</title>
<path fill="none" stroke="black" d="M650.78,-61.04C564.54,-54.84 333.66,-37.74 141.5,-19 138.76,-18.73 135.97,-18.45 133.14,-18.16"/>
</g>
<!-- RPCAppendEntriesResponsePacket -->
<g id="node3" class="node">
<title>RPCAppendEntriesResponsePacket</title>
<g id="a_node3"><a xlink:href="RPCAppendEntriesResponsePacket.html" xlink:title="Packet RPCAppendEntriesResponsePacket" target="_parent">
<polygon fill="#fffcaf" stroke="black" points="328,-19 151,-19 151,0 328,0 328,-19"/>
<text text-anchor="middle" x="239.5" y="-7" font-family="Helvetica,sans-Serif" font-size="10.00">RPCAppendEntriesResponsePacket</text>
</a>
</g>
</g>
<!-- RPCPacket&#45;&gt;RPCAppendEntriesResponsePacket -->
<g id="edge2" class="edge">
<title>RPCPacket&#45;&gt;RPCAppendEntriesResponsePacket</title>
<path fill="none" stroke="black" d="M650.87,-59.39C578.22,-50.75 408.55,-30.59 311.32,-19.04"/>
</g>
<!-- RPCClientCommandPacket -->
<g id="node4" class="node">
<title>RPCClientCommandPacket</title>
<g id="a_node4"><a xlink:href="RPCClientCommandPacket.html" xlink:title="Packet RPCClientCommandPacket" target="_parent">
<polygon fill="#fffcaf" stroke="black" points="486.5,-19 346.5,-19 346.5,0 486.5,0 486.5,-19"/>
<text text-anchor="middle" x="416.5" y="-7" font-family="Helvetica,sans-Serif" font-size="10.00">RPCClientCommandPacket</text>
</a>
</g>
</g>
<!-- RPCPacket&#45;&gt;RPCClientCommandPacket -->
<g id="edge3" class="edge">
<title>RPCPacket&#45;&gt;RPCClientCommandPacket</title>
<path fill="none" stroke="black" d="M650.88,-56.68C602.07,-47.06 513.05,-29.52 459.88,-19.05"/>
</g>
<!-- RPCClientCommandResponsePacket -->
<g id="node5" class="node">
<title>RPCClientCommandResponsePacket</title>
<g id="a_node5"><a xlink:href="RPCClientCommandResponsePacket.html" xlink:title="Packet RPCClientCommandResponsePacket" target="_parent">
<polygon fill="#fffcaf" stroke="black" points="688.5,-19 504.5,-19 504.5,0 688.5,0 688.5,-19"/>
<text text-anchor="middle" x="596.5" y="-7" font-family="Helvetica,sans-Serif" font-size="10.00">RPCClientCommandResponsePacket</text>
</a>
</g>
</g>
<!-- RPCPacket&#45;&gt;RPCClientCommandResponsePacket -->
<g id="edge4" class="edge">
<title>RPCPacket&#45;&gt;RPCClientCommandResponsePacket</title>
<path fill="none" stroke="black" d="M671.2,-54.98C654.69,-45.15 627.68,-29.07 611.06,-19.17"/>
</g>
<!-- RPCInstallSnapshotPacket -->
<g id="node6" class="node">
<title>RPCInstallSnapshotPacket</title>
<g id="a_node6"><a xlink:href="RPCInstallSnapshotPacket.html" xlink:title="Packet RPCInstallSnapshotPacket" target="_parent">
<polygon fill="#fffcaf" stroke="black" points="844,-19 707,-19 707,0 844,0 844,-19"/>
<text text-anchor="middle" x="775.5" y="-7" font-family="Helvetica,sans-Serif" font-size="10.00">RPCInstallSnapshotPacket</text>
</a>
</g>
</g>
<!-- RPCPacket&#45;&gt;RPCInstallSnapshotPacket -->
<g id="edge5" class="edge">
<title>RPCPacket&#45;&gt;RPCInstallSnapshotPacket</title>
<path fill="none" stroke="black" d="M699.96,-54.98C716.66,-45.15 743.97,-29.07 760.78,-19.17"/>
</g>
<!-- RPCInstallSnapshotResponsePacket -->
<g id="node7" class="node">
<title>RPCInstallSnapshotResponsePacket</title>
<g id="a_node7"><a xlink:href="RPCInstallSnapshotResponsePacket.html" xlink:title="Packet RPCInstallSnapshotResponsePacket" target="_parent">
<polygon fill="#fffcaf" stroke="black" points="1043,-19 862,-19 862,0 1043,0 1043,-19"/>
<text text-anchor="middle" x="952.5" y="-7" font-family="Helvetica,sans-Serif" font-size="10.00">RPCInstallSnapshotResponsePacket</text>
</a>
</g>
</g>
<!-- RPCPacket&#45;&gt;RPCInstallSnapshotResponsePacket -->
<g id="edge6" class="edge">
<title>RPCPacket&#45;&gt;RPCInstallSnapshotResponsePacket</title>
<path fill="none" stroke="black" d="M720.13,-56.63C768.67,-46.99 856.88,-29.48 909.54,-19.03"/>
</g>
<!-- RPCRequestVotePacket -->
<g id="node8" class="node">
<title>RPCRequestVotePacket</title>
<g id="a_node8"><a xlink:href="RPCRequestVotePacket.html" xlink:title="Packet RPCRequestVotePacket" target="_parent">
<polygon fill="#fffcaf" stroke="black" points="1187.5,-19 1061.5,-19 1061.5,0 1187.5,0 1187.5,-19"/>
<text text-anchor="middle" x="1124.5" y="-7" font-family="Helvetica,sans-Serif" font-size="10.00">RPCRequestVotePacket</text>
</a>
</g>
</g>
<!-- RPCPacket&#45;&gt;RPCRequestVotePacket -->
<g id="edge7" class="edge">
<title>RPCPacket&#45;&gt;RPCRequestVotePacket</title>
<path fill="none" stroke="black" d="M720.31,-59.3C794.13,-50.38 967.28,-29.48 1061.21,-18.14"/>
</g>
<!-- RPCRequestVoteResponsePacket -->
<g id="node9" class="node">
<title>RPCRequestVoteResponsePacket</title>
<g id="a_node9"><a xlink:href="RPCRequestVoteResponsePacket.html" xlink:title="Packet RPCRequestVoteResponsePacket" target="_parent">
<polygon fill="#fffcaf" stroke="black" points="1375.5,-19 1205.5,-19 1205.5,0 1375.5,0 1375.5,-19"/>
<text text-anchor="middle" x="1290.5" y="-7" font-family="Helvetica,sans-Serif" font-size="10.00">RPCRequestVoteResponsePacket</text>
</a>
</g>
</g>
<!-- RPCPacket&#45;&gt;RPCRequestVoteResponsePacket -->
<g id="edge8" class="edge">
<title>RPCPacket&#45;&gt;RPCRequestVoteResponsePacket</title>
<path fill="none" stroke="black" d="M720.2,-60.52C802.75,-53.42 1017.32,-34.9 1196.5,-19 1199.44,-18.74 1202.43,-18.47 1205.45,-18.2"/>
</g>
</g>
</svg>
